<?xml version="1.0" encoding="UTF-8" standalone="no"?>
<!-- Created with Inkscape (http://www.inkscape.org/) -->

<svg
   width="634"
   height="400"
   viewBox="0 0 167.74582 105.83333"
   version="1.1"
   id="svg970"
   xml:space="preserve"
   inkscape:version="1.2.2 (732a01da63, 2022-12-09)"
   sodipodi:docname="navy.svg"
   xmlns:inkscape="http://www.inkscape.org/namespaces/inkscape"
   xmlns:sodipodi="http://sodipodi.sourceforge.net/DTD/sodipodi-0.dtd"
   xmlns:xlink="http://www.w3.org/1999/xlink"
   xmlns="http://www.w3.org/2000/svg"
   xmlns:svg="http://www.w3.org/2000/svg"><sodipodi:namedview
     id="namedview972"
     pagecolor="#ffffff"
     bordercolor="#000000"
     borderopacity="0.25"
     inkscape:showpageshadow="2"
     inkscape:pageopacity="0.0"
     inkscape:pagecheckerboard="0"
     inkscape:deskcolor="#d1d1d1"
     inkscape:document-units="px"
     showgrid="false"
     showguides="false"
     inkscape:zoom="1.4142136"
     inkscape:cx="305.11657"
     inkscape:cy="174.65537"
     inkscape:window-width="1920"
     inkscape:window-height="1017"
     inkscape:window-x="1912"
     inkscape:window-y="-8"
     inkscape:window-maximized="1"
     inkscape:current-layer="layer6"
     inkscape:lockguides="false" /><defs
     id="defs967"><linearGradient
       id="linearGradient25363"
       inkscape:swatch="solid"><stop
         style="stop-color:#000000;stop-opacity:1;"
         offset="0"
         id="stop25361" /></linearGradient><linearGradient
       inkscape:collect="always"
       id="linearGradient19835"><stop
         style="stop-color:#f6e20f;stop-opacity:1;"
         offset="0"
         id="stop19831" /><stop
         style="stop-color:#bf971b;stop-opacity:1;"
         offset="0.5643087"
         id="stop21012" /><stop
         style="stop-color:#f8e79e;stop-opacity:1;"
         offset="1"
         id="stop19833" /></linearGradient><rect
       x="44.547726"
       y="20.506098"
       width="161.92744"
       height="45.608387"
       id="rect19270" /><linearGradient
       inkscape:collect="always"
       id="linearGradient11449"><stop
         style="stop-color:#fff1aa;stop-opacity:1;"
         offset="0"
         id="stop11445" /><stop
         style="stop-color:#b2861e;stop-opacity:1;"
         offset="0.43365699"
         id="stop11457" /><stop
         style="stop-color:#f6e20f;stop-opacity:1;"
         offset="0.77813506"
         id="stop11447" /></linearGradient><linearGradient
       inkscape:collect="always"
       id="linearGradient10378"><stop
         style="stop-color:#2d2d2d;stop-opacity:1;"
         offset="0"
         id="stop10374" /><stop
         style="stop-color:#000080;stop-opacity:1;"
         offset="1"
         id="stop10376" /></linearGradient><clipPath
       clipPathUnits="userSpaceOnUse"
       id="clipPath2619"><path
         style="display:inline;opacity:1;fill:#000000;fill-opacity:0;stroke:#000000;stroke-width:0;stroke-linejoin:round;stroke-dasharray:none;stroke-opacity:1"
         sodipodi:type="inkscape:offset"
         inkscape:radius="0"
         inkscape:original="M 40.123047 56.496094 C 38.516516 56.496094 37.222656 57.789953 37.222656 59.396484 L 37.222656 136.85156 C 37.222656 138.45809 38.516516 139.75195 40.123047 139.75195 L 169.40234 139.75195 C 171.00887 139.75195 172.30078 138.45809 172.30078 136.85156 L 172.30078 59.396484 C 172.30078 57.789953 171.00887 56.496094 169.40234 56.496094 L 40.123047 56.496094 z "
         xlink:href="#rect1572"
         id="path2621"
         inkscape:href="#rect1572"
         d="m 40.123047,56.496094 c -1.606531,0 -2.900391,1.293859 -2.900391,2.90039 v 77.455076 c 0,1.60653 1.29386,2.90039 2.900391,2.90039 H 169.40234 c 1.60653,0 2.89844,-1.29386 2.89844,-2.90039 V 59.396484 c 0,-1.606531 -1.29191,-2.90039 -2.89844,-2.90039 z" /></clipPath><clipPath
       clipPathUnits="userSpaceOnUse"
       id="clipPath2626"><path
         style="display:inline;opacity:1;fill:#000000;fill-opacity:0;stroke:#000000;stroke-width:0;stroke-linejoin:round;stroke-dasharray:none;stroke-opacity:1"
         sodipodi:type="inkscape:offset"
         inkscape:radius="0"
         inkscape:original="M 40.123047 56.496094 C 38.516516 56.496094 37.222656 57.789953 37.222656 59.396484 L 37.222656 136.85156 C 37.222656 138.45809 38.516516 139.75195 40.123047 139.75195 L 169.40234 139.75195 C 171.00887 139.75195 172.30078 138.45809 172.30078 136.85156 L 172.30078 59.396484 C 172.30078 57.789953 171.00887 56.496094 169.40234 56.496094 L 40.123047 56.496094 z "
         xlink:href="#rect1572"
         id="path2628"
         inkscape:href="#rect1572"
         d="m 40.123047,56.496094 c -1.606531,0 -2.900391,1.293859 -2.900391,2.90039 v 77.455076 c 0,1.60653 1.29386,2.90039 2.900391,2.90039 H 169.40234 c 1.60653,0 2.89844,-1.29386 2.89844,-2.90039 V 59.396484 c 0,-1.606531 -1.29191,-2.90039 -2.89844,-2.90039 z"
         transform="matrix(12.551831,0,0,12.551831,-405.53411,-516.60095)" /></clipPath><clipPath
       clipPathUnits="userSpaceOnUse"
       id="clipPath7272"><path
         style="display:inline;opacity:1;fill:#000000;fill-opacity:0;stroke:#000000;stroke-width:0;stroke-linejoin:round;stroke-dasharray:none;stroke-opacity:1"
         sodipodi:type="inkscape:offset"
         inkscape:radius="0"
         inkscape:original="M 40.123047 56.496094 C 38.516516 56.496094 37.222656 57.789953 37.222656 59.396484 L 37.222656 136.85156 C 37.222656 138.45809 38.516516 139.75195 40.123047 139.75195 L 169.40234 139.75195 C 171.00887 139.75195 172.30078 138.45809 172.30078 136.85156 L 172.30078 59.396484 C 172.30078 57.789953 171.00887 56.496094 169.40234 56.496094 L 40.123047 56.496094 z "
         xlink:href="#rect1572"
         id="path7274"
         inkscape:href="#rect1572"
         d="m 40.123047,56.496094 c -1.606531,0 -2.900391,1.293859 -2.900391,2.90039 v 77.455076 c 0,1.60653 1.29386,2.90039 2.900391,2.90039 H 169.40234 c 1.60653,0 2.89844,-1.29386 2.89844,-2.90039 V 59.396484 c 0,-1.606531 -1.29191,-2.90039 -2.89844,-2.90039 z" /></clipPath><clipPath
       clipPathUnits="userSpaceOnUse"
       id="clipPath11404"><path
         style="display:inline;opacity:1;fill:#000000;fill-opacity:0;stroke:#000000;stroke-width:0;stroke-linejoin:round;stroke-dasharray:none;stroke-opacity:1"
         sodipodi:type="inkscape:offset"
         inkscape:radius="0"
         inkscape:original="M 40.123047 56.496094 C 38.516516 56.496094 37.222656 57.789953 37.222656 59.396484 L 37.222656 136.85156 C 37.222656 138.45809 38.516516 139.75195 40.123047 139.75195 L 169.40234 139.75195 C 171.00887 139.75195 172.30078 138.45809 172.30078 136.85156 L 172.30078 59.396484 C 172.30078 57.789953 171.00887 56.496094 169.40234 56.496094 L 40.123047 56.496094 z "
         xlink:href="#rect1572"
         id="path11406"
         inkscape:href="#rect1572"
         d="m 40.123047,56.496094 c -1.606531,0 -2.900391,1.293859 -2.900391,2.90039 v 77.455076 c 0,1.60653 1.29386,2.90039 2.900391,2.90039 H 169.40234 c 1.60653,0 2.89844,-1.29386 2.89844,-2.90039 V 59.396484 c 0,-1.606531 -1.29191,-2.90039 -2.89844,-2.90039 z"
         transform="rotate(-19.204768)" /></clipPath><style
       id="style11411">.cls-1{fill:#010101;}.cls-2{fill:#fff;}.cls-3{fill:#eb2127;}</style><linearGradient
       inkscape:collect="always"
       xlink:href="#linearGradient11449"
       id="linearGradient11451"
       x1="775.60834"
       y1="1204.1606"
       x2="798.17682"
       y2="248.32256"
       gradientUnits="userSpaceOnUse"
       spreadMethod="pad" /><linearGradient
       inkscape:collect="always"
       xlink:href="#linearGradient11449"
       id="linearGradient19211"
       gradientUnits="userSpaceOnUse"
       x1="775.60834"
       y1="1204.1606"
       x2="798.17682"
       y2="248.32256"
       spreadMethod="pad" /><linearGradient
       inkscape:collect="always"
       xlink:href="#linearGradient11449"
       id="linearGradient19213"
       gradientUnits="userSpaceOnUse"
       x1="775.60834"
       y1="1204.1606"
       x2="798.17682"
       y2="248.32256"
       spreadMethod="pad" /><linearGradient
       inkscape:collect="always"
       xlink:href="#linearGradient11449"
       id="linearGradient11451-2"
       x1="775.60834"
       y1="1204.1606"
       x2="798.17682"
       y2="248.32256"
       gradientUnits="userSpaceOnUse"
       spreadMethod="pad" /><linearGradient
       inkscape:collect="always"
       xlink:href="#linearGradient19835"
       id="linearGradient19837"
       gradientUnits="userSpaceOnUse"
       x1="104.04734"
       y1="22.09709"
       x2="104.2198"
       y2="39.951534"
       spreadMethod="pad" /><rect
       x="44.547726"
       y="20.506098"
       width="161.92744"
       height="45.608387"
       id="rect25324" /><linearGradient
       inkscape:collect="always"
       xlink:href="#linearGradient25363"
       id="linearGradient25365"
       x1="44.488281"
       y1="30.920898"
       x2="193.04297"
       y2="30.920898"
       gradientUnits="userSpaceOnUse" /><filter
       style="color-interpolation-filters:sRGB"
       inkscape:label="Drop Shadow"
       id="filter25920"
       x="-0.016155667"
       y="-0.1586572"
       width="1.0323113"
       height="1.3173144"><feFlood
         flood-opacity="0.498039"
         flood-color="rgb(0,0,0)"
         result="flood"
         id="feFlood25910" /><feComposite
         in="flood"
         in2="SourceGraphic"
         operator="in"
         result="composite1"
         id="feComposite25912" /><feGaussianBlur
         in="composite1"
         stdDeviation="1"
         result="blur"
         id="feGaussianBlur25914" /><feOffset
         dx="0"
         dy="0"
         result="offset"
         id="feOffset25916" /><feComposite
         in="SourceGraphic"
         in2="offset"
         operator="over"
         result="composite2"
         id="feComposite25918" /></filter><filter
       style="color-interpolation-filters:sRGB"
       inkscape:label="Drop Shadow"
       id="filter26544"
       x="-0.40745813"
       y="-0.40798963"
       width="1.8149163"
       height="1.8159793"><feFlood
         flood-opacity="0.584314"
         flood-color="rgb(0,0,0)"
         result="flood"
         id="feFlood26534" /><feComposite
         in="flood"
         in2="SourceGraphic"
         operator="in"
         result="composite1"
         id="feComposite26536" /><feGaussianBlur
         in="composite1"
         stdDeviation="154.517"
         result="blur"
         id="feGaussianBlur26538" /><feOffset
         dx="0"
         dy="0"
         result="offset"
         id="feOffset26540" /><feComposite
         in="SourceGraphic"
         in2="offset"
         operator="over"
         result="composite2"
         id="feComposite26542" /></filter><filter
       style="color-interpolation-filters:sRGB"
       inkscape:label="Drop Shadow"
       id="filter26556"
       x="-0.055112866"
       y="-0.055184758"
       width="1.1102257"
       height="1.1103695"><feFlood
         flood-opacity="0.584314"
         flood-color="rgb(0,0,0)"
         result="flood"
         id="feFlood26546" /><feComposite
         in="flood"
         in2="SourceGraphic"
         operator="in"
         result="composite1"
         id="feComposite26548" /><feGaussianBlur
         in="composite1"
         stdDeviation="20.9"
         result="blur"
         id="feGaussianBlur26550" /><feOffset
         dx="0"
         dy="0"
         result="offset"
         id="feOffset26552" /><feComposite
         in="SourceGraphic"
         in2="offset"
         operator="over"
         result="composite2"
         id="feComposite26554" /></filter><linearGradient
       inkscape:collect="always"
       xlink:href="#linearGradient10378"
       id="linearGradient1079"
       gradientUnits="userSpaceOnUse"
       x1="-2.7475617"
       y1="166.62384"
       x2="181.52292"
       y2="66.559502" /><linearGradient
       inkscape:collect="always"
       xlink:href="#linearGradient11449"
       id="linearGradient1081"
       gradientUnits="userSpaceOnUse"
       x1="775.60834"
       y1="1204.1606"
       x2="798.17682"
       y2="248.32256"
       spreadMethod="pad" /><linearGradient
       inkscape:collect="always"
       xlink:href="#linearGradient11449"
       id="linearGradient1083"
       gradientUnits="userSpaceOnUse"
       x1="775.60834"
       y1="1204.1606"
       x2="798.17682"
       y2="248.32256"
       spreadMethod="pad" /><filter
       style="color-interpolation-filters:sRGB;"
       inkscape:label="Drop Shadow"
       id="filter1696"
       x="-0.081482659"
       y="-0.081588949"
       width="1.1629653"
       height="1.1631779"><feFlood
         flood-opacity="0.584314"
         flood-color="rgb(0,0,0)"
         result="flood"
         id="feFlood1686" /><feComposite
         in="flood"
         in2="SourceGraphic"
         operator="in"
         result="composite1"
         id="feComposite1688" /><feGaussianBlur
         in="composite1"
         stdDeviation="30.9"
         result="blur"
         id="feGaussianBlur1690" /><feOffset
         dx="0"
         dy="0"
         result="offset"
         id="feOffset1692" /><feComposite
         in="SourceGraphic"
         in2="offset"
         operator="over"
         result="composite2"
         id="feComposite1694" /></filter><filter
       style="color-interpolation-filters:sRGB;"
       inkscape:label="Drop Shadow"
       id="filter2072"
       x="-0.079109379"
       y="-0.079212573"
       width="1.1582188"
       height="1.1584251"><feFlood
         flood-opacity="0.584314"
         flood-color="rgb(0,0,0)"
         result="flood"
         id="feFlood2062" /><feComposite
         in="flood"
         in2="SourceGraphic"
         operator="in"
         result="composite1"
         id="feComposite2064" /><feGaussianBlur
         in="composite1"
         stdDeviation="30"
         result="blur"
         id="feGaussianBlur2066" /><feOffset
         dx="0"
         dy="0"
         result="offset"
         id="feOffset2068" /><feComposite
         in="SourceGraphic"
         in2="offset"
         operator="over"
         result="composite2"
         id="feComposite2070" /></filter><filter
       style="color-interpolation-filters:sRGB;"
       inkscape:label="Drop Shadow"
       id="filter2156"
       x="-0.016155667"
       y="-0.1586572"
       width="1.0323113"
       height="1.3173144"><feFlood
         flood-opacity="0.584314"
         flood-color="rgb(0,0,0)"
         result="flood"
         id="feFlood2146" /><feComposite
         in="flood"
         in2="SourceGraphic"
         operator="in"
         result="composite1"
         id="feComposite2148" /><feGaussianBlur
         in="composite1"
         stdDeviation="1"
         result="blur"
         id="feGaussianBlur2150" /><feOffset
         dx="0"
         dy="0"
         result="offset"
         id="feOffset2152" /><feComposite
         in="SourceGraphic"
         in2="offset"
         operator="over"
         result="composite2"
         id="feComposite2154" /></filter><filter
       style="color-interpolation-filters:sRGB;"
       inkscape:label="Drop Shadow"
       id="filter2312"
       x="-0.079109379"
       y="-0.079212573"
       width="1.1582188"
       height="1.1584251"><feFlood
         flood-opacity="0.584314"
         flood-color="rgb(0,0,0)"
         result="flood"
         id="feFlood2302" /><feComposite
         in="flood"
         in2="SourceGraphic"
         operator="in"
         result="composite1"
         id="feComposite2304" /><feGaussianBlur
         in="composite1"
         stdDeviation="30"
         result="blur"
         id="feGaussianBlur2306" /><feOffset
         dx="0"
         dy="0"
         result="offset"
         id="feOffset2308" /><feComposite
         in="SourceGraphic"
         in2="offset"
         operator="over"
         result="composite2"
         id="feComposite2310" /></filter><filter
       style="color-interpolation-filters:sRGB;"
       inkscape:label="Drop Shadow"
       id="filter5565"
       x="-0.049114006"
       y="-0.05011223"
       width="1.098228"
       height="1.1002245"><feFlood
         flood-opacity="1"
         flood-color="rgb(0,0,0)"
         result="flood"
         id="feFlood5555" /><feComposite
         in="flood"
         in2="SourceGraphic"
         operator="in"
         result="composite1"
         id="feComposite5557" /><feGaussianBlur
         in="composite1"
         stdDeviation="5"
         result="blur"
         id="feGaussianBlur5559" /><feOffset
         dx="0"
         dy="0"
         result="offset"
         id="feOffset5561" /><feComposite
         in="SourceGraphic"
         in2="offset"
         operator="over"
         result="composite2"
         id="feComposite5563" /></filter></defs><g
     inkscape:label="Layer 1"
     id="layer1"
     inkscape:groupmode="layer"
     transform="matrix(1.2418356,0,0,1.2711818,-46.224419,-71.816805)"
     style="display:inline"><g
       inkscape:groupmode="layer"
       id="layer6"
       inkscape:label="Card Background"><path
         style="display:inline;opacity:1;fill:url(#linearGradient1079);fill-opacity:1;stroke:#000000;stroke-width:0;stroke-linejoin:round;stroke-dasharray:none;stroke-opacity:1"
         sodipodi:type="inkscape:offset"
         inkscape:radius="0"
         inkscape:original="M 40.123047 56.496094 C 38.516516 56.496094 37.222656 57.789953 37.222656 59.396484 L 37.222656 136.85156 C 37.222656 138.45809 38.516516 139.75195 40.123047 139.75195 L 169.40234 139.75195 C 171.00887 139.75195 172.30078 138.45809 172.30078 136.85156 L 172.30078 59.396484 C 172.30078 57.789953 171.00887 56.496094 169.40234 56.496094 L 40.123047 56.496094 z "
         xlink:href="#rect1572"
         id="path7280"
         inkscape:href="#rect1572"
         d="m 40.123047,56.496094 c -1.606531,0 -2.900391,1.293859 -2.900391,2.90039 v 77.455076 c 0,1.60653 1.29386,2.90039 2.900391,2.90039 H 169.40234 c 1.60653,0 2.89844,-1.29386 2.89844,-2.90039 V 59.396484 c 0,-1.606531 -1.29191,-2.90039 -2.89844,-2.90039 z" /></g><g
       inkscape:groupmode="layer"
       id="layer8"
       inkscape:label="Sideways Thing"><rect
         style="opacity:0.1;fill:#ffffff;fill-opacity:1;stroke:none;stroke-width:3.6;stroke-linejoin:round;stroke-dasharray:none;stroke-opacity:1"
         id="rect10409"
         width="96.705208"
         height="42.862499"
         x="100.32379"
         y="-21.658689"
         rx="0"
         ry="0"
         transform="rotate(19.204768)"
         clip-path="url(#clipPath11404)" /></g><g
       inkscape:groupmode="layer"
       id="layer3"
       inkscape:label="White Pokeballs"
       style="opacity:0.287313"><g
         id="g1037"
         transform="matrix(0.03158867,-0.0350818,0.0350818,0.03158867,122.32292,118.57076)"
         style="opacity:0.5"><path
           class="cls-2"
           d="m 191.65144,348.10541 c 31.2564,17.24899 62.42009,34.68667 93.86009,51.60295 6.43877,3.4619 7.96407,6.67934 6.02258,13.9229 -19.13179,73.61967 14.79845,151.17721 82.12724,188.5385 a 168.44,168.44 0 0 0 203.53776,-30.82443 c 5.34581,-5.54761 8.68904,-5.87275 15.00462,-2.3532 q 94.09914,52.3288 188.54525,104.04956 c 7.00423,3.86532 7.61029,5.91302 2.77641,12.85104 C 689.74572,820.41586 516.70854,887.63749 351.90282,841.96416 216.95075,804.55353 124.25169,718.43542 76.543794,586.38871 43.988553,496.36369 46.382509,405.74043 78.095576,315.71791 87.030514,290.35845 86.968319,290.34697 110.73894,303.4649 Z"
           id="path1031"
           style="fill:#ffffff" /><path
           class="cls-3"
           d="m 718.42909,560.22905 c -30.59099,-16.88178 -61.06512,-33.99604 -91.86479,-50.479 -7.35506,-3.93328 -8.88087,-8.01906 -7.03774,-16.03645 16.19526,-70.30606 -12.7588,-143.6555 -70.60459,-179.88393 -65.16487,-40.82716 -141.00351,-37.51781 -199.75215,8.71104 -1.76186,1.39199 -3.47784,2.86641 -5.13253,4.37466 -18.30063,16.60455 -18.30063,16.60455 -40.53908,4.33217 -56.58546,-31.22695 -113.08969,-62.5804 -169.8201,-93.54469 -8.41384,-4.64321 -11.67282,-7.49249 -4.45681,-16.98786 C 224.40732,95.419985 350.78538,39.067159 506.57686,57.756396 674.49888,77.851696 805.924,198.52156 845.42182,362.54114 c 19.80247,82.23352 13.33625,163.03691 -18.02243,241.69628 -5.27652,13.20409 -5.40091,13.18113 -18.16221,6.15018 q -45.40797,-25.09287 -90.80809,-50.15855 z"
           id="path1033"
           style="fill:#ffffff;fill-opacity:1" /><path
           class="cls-2"
           d="m 398.99378,558.35597 c -56.4231,-30.48631 -78.66612,-102.66784 -48.70134,-158.04241 32.02097,-59.1626 103.34259,-81.17202 161.15143,-49.76108 56.97618,30.97427 78.46894,103.00446 47.81014,160.25754 -30.44319,56.90376 -103.1035,78.48281 -160.26023,47.54595 z"
           id="path1035"
           style="fill:#ffffff" /></g><g
         id="g1029"
         transform="matrix(0.03000168,-0.01005521,0.01005521,0.03000168,110.68415,91.732161)"
         style="opacity:0.5"><path
           class="cls-2"
           d="m 191.65144,348.10541 c 31.2564,17.24899 62.42009,34.68667 93.86009,51.60295 6.43877,3.4619 7.96407,6.67934 6.02258,13.9229 -19.13179,73.61967 14.79845,151.17721 82.12724,188.5385 a 168.44,168.44 0 0 0 203.53776,-30.82443 c 5.34581,-5.54761 8.68904,-5.87275 15.00462,-2.3532 q 94.09914,52.3288 188.54525,104.04956 c 7.00423,3.86532 7.61029,5.91302 2.77641,12.85104 C 689.74572,820.41586 516.70854,887.63749 351.90282,841.96416 216.95075,804.55353 124.25169,718.43542 76.543794,586.38871 43.988553,496.36369 46.382509,405.74043 78.095576,315.71791 87.030514,290.35845 86.968319,290.34697 110.73894,303.4649 Z"
           id="path1023"
           style="fill:#ffffff" /><path
           class="cls-3"
           d="m 718.42909,560.22905 c -30.59099,-16.88178 -61.06512,-33.99604 -91.86479,-50.479 -7.35506,-3.93328 -8.88087,-8.01906 -7.03774,-16.03645 16.19526,-70.30606 -12.7588,-143.6555 -70.60459,-179.88393 -65.16487,-40.82716 -141.00351,-37.51781 -199.75215,8.71104 -1.76186,1.39199 -3.47784,2.86641 -5.13253,4.37466 -18.30063,16.60455 -18.30063,16.60455 -40.53908,4.33217 -56.58546,-31.22695 -113.08969,-62.5804 -169.8201,-93.54469 -8.41384,-4.64321 -11.67282,-7.49249 -4.45681,-16.98786 C 224.40732,95.419985 350.78538,39.067159 506.57686,57.756396 674.49888,77.851696 805.924,198.52156 845.42182,362.54114 c 19.80247,82.23352 13.33625,163.03691 -18.02243,241.69628 -5.27652,13.20409 -5.40091,13.18113 -18.16221,6.15018 q -45.40797,-25.09287 -90.80809,-50.15855 z"
           id="path1025"
           style="fill:#ffffff;fill-opacity:1" /><path
           class="cls-2"
           d="m 398.99378,558.35597 c -56.4231,-30.48631 -78.66612,-102.66784 -48.70134,-158.04241 32.02097,-59.1626 103.34259,-81.17202 161.15143,-49.76108 56.97618,30.97427 78.46894,103.00446 47.81014,160.25754 -30.44319,56.90376 -103.1035,78.48281 -160.26023,47.54595 z"
           id="path1027"
           style="fill:#ffffff" /></g><g
         id="g34"
         transform="matrix(0.07966965,0,0,0.07966965,32.308761,41.157417)"
         style="display:inline;opacity:0.5"
         clip-path="url(#clipPath2626)"><path
           class="cls-2"
           d="m 191.65144,348.10541 c 31.2564,17.24899 62.42009,34.68667 93.86009,51.60295 6.43877,3.4619 7.96407,6.67934 6.02258,13.9229 -19.13179,73.61967 14.79845,151.17721 82.12724,188.5385 a 168.44,168.44 0 0 0 203.53776,-30.82443 c 5.34581,-5.54761 8.68904,-5.87275 15.00462,-2.3532 q 94.09914,52.3288 188.54525,104.04956 c 7.00423,3.86532 7.61029,5.91302 2.77641,12.85104 C 689.74572,820.41586 516.70854,887.63749 351.90282,841.96416 216.95075,804.55353 124.25169,718.43542 76.543794,586.38871 43.988553,496.36369 46.382509,405.74043 78.095576,315.71791 87.030514,290.35845 86.968319,290.34697 110.73894,303.4649 Z"
           id="path17"
           style="fill:#ffffff" /><path
           class="cls-3"
           d="m 718.42909,560.22905 c -30.59099,-16.88178 -61.06512,-33.99604 -91.86479,-50.479 -7.35506,-3.93328 -8.88087,-8.01906 -7.03774,-16.03645 16.19526,-70.30606 -12.7588,-143.6555 -70.60459,-179.88393 -65.16487,-40.82716 -141.00351,-37.51781 -199.75215,8.71104 -1.76186,1.39199 -3.47784,2.86641 -5.13253,4.37466 -18.30063,16.60455 -18.30063,16.60455 -40.53908,4.33217 -56.58546,-31.22695 -113.08969,-62.5804 -169.8201,-93.54469 -8.41384,-4.64321 -11.67282,-7.49249 -4.45681,-16.98786 C 224.40732,95.419985 350.78538,39.067159 506.57686,57.756396 674.49888,77.851696 805.924,198.52156 845.42182,362.54114 c 19.80247,82.23352 13.33625,163.03691 -18.02243,241.69628 -5.27652,13.20409 -5.40091,13.18113 -18.16221,6.15018 q -45.40797,-25.09287 -90.80809,-50.15855 z"
           id="path19"
           style="fill:#ffffff;fill-opacity:1" /><path
           class="cls-2"
           d="m 398.99378,558.35597 c -56.4231,-30.48631 -78.66612,-102.66784 -48.70134,-158.04241 32.02097,-59.1626 103.34259,-81.17202 161.15143,-49.76108 56.97618,30.97427 78.46894,103.00446 47.81014,160.25754 -30.44319,56.90376 -103.1035,78.48281 -160.26023,47.54595 z"
           id="path21"
           style="fill:#ffffff" /></g></g><g
       inkscape:groupmode="layer"
       id="layer9"
       inkscape:label="Trainer Card Title"
       style="display:inline"
       transform="matrix(0.94911495,0,0,0.96155355,-0.35262214,2.8841897)"><g
         id="g11436"
         transform="matrix(0.00590393,0,0,0.00590393,44.377508,61.177856)"
         style="opacity:1;filter:url(#filter2072)"><path
           class="cls-1"
           d="m 337,730 c 0.61,-252 204.75,-455.12 456.36,-454.09 251.82,1 454.28,204.19 453.77,455.38 -0.51,251.19 -204.7,454.42 -455.63,453.56 C 539.59,1184 336.4,980.67 337,730 Z"
           transform="translate(-337,-275.94)"
           id="path11417"
           style="fill:url(#linearGradient1081);fill-opacity:1" /><path
           class="cls-2"
           d="m 510,764.63 c 35.7,0 71.41,0.21 107.11,-0.17 7.31,-0.08 10.2,2 12,9.28 18.82,73.7 86,125.21 163,125.39 A 168.44,168.44 0 0 0 955.42,773.8 c 2,-7.44 4.77,-9.34 12,-9.31 q 107.67,0.35 215.35,0 c 8,0 9.52,1.5 8.64,9.91 -17.11,163.09 -136.13,305.55 -302.49,345.19 -136.23,32.45 -259,1.84 -364.57,-90.72 -72,-63.09 -113.69,-143.59 -129.42,-237.73 -4.43,-26.52 -4.49,-26.5 22.66,-26.5 z"
           transform="translate(-337,-275.94)"
           id="path11419" /><path
           class="cls-3"
           d="m 1073.7,695.83 c -34.94,0 -69.89,-0.26 -104.82,0.19 -8.34,0.11 -11.65,-2.73 -13.91,-10.64 C 935.18,616 874.39,565.77 806.24,562 c -76.78,-4.26 -141.58,35.28 -170.68,104.14 -0.87,2.07 -1.66,4.19 -2.38,6.31 -8,23.38 -8,23.38 -33.4,23.38 -64.63,0 -129.25,-0.15 -193.88,0.15 -9.61,0 -13.84,-0.92 -12.11,-12.72 22.8,-155.69 106.22,-266.09 251.65,-325 156.73,-63.54 330.1,-21.39 443.93,103.13 57.07,62.43 90.45,136.3 101,220.32 1.76,14.11 1.64,14.15 -12.93,14.16 q -51.88,-0.03 -103.74,-0.04 z"
           transform="translate(-337,-275.94)"
           id="path11421" /><path
           class="cls-2"
           d="m 793.12,848.53 c -64.13,0.57 -118.48,-51.88 -119,-114.84 -0.55,-67.27 51.26,-121 117.05,-121.43 64.85,-0.41 118.47,52.27 119.29,117.21 C 911.3,794 858.11,848 793.12,848.53 Z"
           transform="translate(-337,-275.94)"
           id="path11423" /><path
           class="cls-1"
           d="m 793.1,672.52 c 32.69,0.37 57.55,26.21 57.15,59.39 -0.39,31.86 -26.4,56.79 -59,56.55 a 57.74,57.74 0 0 1 -57.36,-58.33 c 0.42,-32.78 26.31,-57.98 59.21,-57.61 z"
           transform="translate(-337,-275.94)"
           id="path11425"
           style="font-variation-settings:normal;opacity:1;vector-effect:none;fill:url(#linearGradient1083);fill-opacity:1;stroke-width:1;stroke-linecap:butt;stroke-linejoin:miter;stroke-miterlimit:4;stroke-dasharray:none;stroke-dashoffset:0;stroke-opacity:1;-inkscape-stroke:none;stop-color:#000000;stop-opacity:1" /></g><g
         id="g19209"
         transform="matrix(0.00590393,0,0,0.00590393,97.126331,61.177856)"
         style="opacity:1"><path
           class="cls-1"
           d="m 337,730 c 0.61,-252 204.75,-455.12 456.36,-454.09 251.82,1 454.28,204.19 453.77,455.38 -0.51,251.19 -204.7,454.42 -455.63,453.56 C 539.59,1184 336.4,980.67 337,730 Z"
           transform="translate(-337,-275.94)"
           id="path19199"
           style="fill:url(#linearGradient19211);fill-opacity:1;filter:url(#filter2312)" /><path
           class="cls-2"
           d="m 510,764.63 c 35.7,0 71.41,0.21 107.11,-0.17 7.31,-0.08 10.2,2 12,9.28 18.82,73.7 86,125.21 163,125.39 A 168.44,168.44 0 0 0 955.42,773.8 c 2,-7.44 4.77,-9.34 12,-9.31 q 107.67,0.35 215.35,0 c 8,0 9.52,1.5 8.64,9.91 -17.11,163.09 -136.13,305.55 -302.49,345.19 -136.23,32.45 -259,1.84 -364.57,-90.72 -72,-63.09 -113.69,-143.59 -129.42,-237.73 -4.43,-26.52 -4.49,-26.5 22.66,-26.5 z"
           transform="translate(-337,-275.94)"
           id="path19201" /><path
           class="cls-3"
           d="m 1073.7,695.83 c -34.94,0 -69.89,-0.26 -104.82,0.19 -8.34,0.11 -11.65,-2.73 -13.91,-10.64 C 935.18,616 874.39,565.77 806.24,562 c -76.78,-4.26 -141.58,35.28 -170.68,104.14 -0.87,2.07 -1.66,4.19 -2.38,6.31 -8,23.38 -8,23.38 -33.4,23.38 -64.63,0 -129.25,-0.15 -193.88,0.15 -9.61,0 -13.84,-0.92 -12.11,-12.72 22.8,-155.69 106.22,-266.09 251.65,-325 156.73,-63.54 330.1,-21.39 443.93,103.13 57.07,62.43 90.45,136.3 101,220.32 1.76,14.11 1.64,14.15 -12.93,14.16 q -51.88,-0.03 -103.74,-0.04 z"
           transform="translate(-337,-275.94)"
           id="path19203" /><path
           class="cls-2"
           d="m 793.12,848.53 c -64.13,0.57 -118.48,-51.88 -119,-114.84 -0.55,-67.27 51.26,-121 117.05,-121.43 64.85,-0.41 118.47,52.27 119.29,117.21 C 911.3,794 858.11,848 793.12,848.53 Z"
           transform="translate(-337,-275.94)"
           id="path19205" /><path
           class="cls-1"
           d="m 793.1,672.52 c 32.69,0.37 57.55,26.21 57.15,59.39 -0.39,31.86 -26.4,56.79 -59,56.55 a 57.74,57.74 0 0 1 -57.36,-58.33 c 0.42,-32.78 26.31,-57.98 59.21,-57.61 z"
           transform="translate(-337,-275.94)"
           id="path19207"
           style="font-variation-settings:normal;opacity:1;vector-effect:none;fill:url(#linearGradient19213);fill-opacity:1;stroke-width:1;stroke-linecap:butt;stroke-linejoin:miter;stroke-miterlimit:4;stroke-dasharray:none;stroke-dashoffset:0;stroke-opacity:1;-inkscape-stroke:none;stop-color:#000000;stop-opacity:1" /></g><g
         inkscape:groupmode="layer"
         id="layer10"
         inkscape:label="Trainer Card Words"
         style="font-variation-settings:normal;display:inline;opacity:1;vector-effect:none;fill:url(#linearGradient11451);fill-opacity:1;stroke-width:0.00565178;stroke-linecap:butt;stroke-linejoin:miter;stroke-miterlimit:4;stroke-dasharray:none;stroke-dashoffset:0;stroke-opacity:1;-inkscape-stroke:none;stop-color:#000000;stop-opacity:1"
         transform="matrix(1.0446144,0,0,1.0446144,0.68902038,-3.3362328)"><text
           xml:space="preserve"
           transform="matrix(0.27119514,0,0,0.26458333,37.069737,56.122633)"
           id="text19268"
           style="font-size:20px;font-variation-settings:normal;white-space:pre;shape-inside:url(#rect19270);display:inline;opacity:1;vector-effect:none;fill:url(#linearGradient19837);fill-opacity:1;stroke:none;stroke-width:0.0210991;stroke-linecap:butt;stroke-linejoin:miter;stroke-miterlimit:4;stroke-dasharray:none;stroke-dashoffset:0;stroke-opacity:1;-inkscape-stroke:none;filter:url(#filter2156);stop-color:#000000;stop-opacity:1"
           inkscape:label="text19268"><tspan
             x="44.546875"
             y="38.201172"
             id="tspan22127">TRAINER CARD</tspan></text></g></g><g
       inkscape:groupmode="layer"
       id="layer4"
       inkscape:label="Trainer Picture"
       transform="matrix(0.9981611,0,0,0.99942637,0.52796289,1.3976209)"><rect
         style="opacity:0.05;fill:#ffffff;fill-opacity:1;stroke:none;stroke-width:0;stroke-linejoin:round;stroke-dasharray:none;stroke-opacity:1"
         id="rect2688"
         width="42.049801"
         height="72.890686"
         x="125.55782"
         y="61.377869"
         rx="2.0192401"
         ry="2.0843778" /></g><g
       inkscape:groupmode="layer"
       id="layer5"
       inkscape:label="Outer Border"><path
         style="display:inline;opacity:1;fill:none;fill-opacity:0;stroke:#ffffff;stroke-width:3.6;stroke-linejoin:round;stroke-dasharray:none;stroke-opacity:1"
         sodipodi:type="inkscape:offset"
         inkscape:radius="0"
         inkscape:original="M 40.123047 56.496094 C 38.516516 56.496094 37.222656 57.789953 37.222656 59.396484 L 37.222656 136.85156 C 37.222656 138.45809 38.516516 139.75195 40.123047 139.75195 L 169.40234 139.75195 C 171.00887 139.75195 172.30078 138.45809 172.30078 136.85156 L 172.30078 59.396484 C 172.30078 57.789953 171.00887 56.496094 169.40234 56.496094 L 40.123047 56.496094 z "
         xlink:href="#rect1572"
         id="path5394"
         inkscape:href="#rect1572"
         d="m 40.123047,56.496094 c -1.606531,0 -2.900391,1.293859 -2.900391,2.90039 v 77.455076 c 0,1.60653 1.29386,2.90039 2.900391,2.90039 H 169.40234 c 1.60653,0 2.89844,-1.29386 2.89844,-2.90039 V 59.396484 c 0,-1.606531 -1.29191,-2.90039 -2.89844,-2.90039 z"
         clip-path="url(#clipPath7272)" /><path
         style="display:inline;opacity:1;fill:#000000;fill-opacity:0;stroke:#000000;stroke-width:2.5;stroke-linejoin:round;stroke-dasharray:none;stroke-opacity:1"
         sodipodi:type="inkscape:offset"
         inkscape:radius="0"
         inkscape:original="M 40.123047 56.496094 C 38.516516 56.496094 37.222656 57.789953 37.222656 59.396484 L 37.222656 136.85156 C 37.222656 138.45809 38.516516 139.75195 40.123047 139.75195 L 169.40234 139.75195 C 171.00887 139.75195 172.30078 138.45809 172.30078 136.85156 L 172.30078 59.396484 C 172.30078 57.789953 171.00887 56.496094 169.40234 56.496094 L 40.123047 56.496094 z "
         xlink:href="#rect1572"
         id="path2252"
         inkscape:href="#rect1572"
         d="m 40.123047,56.496094 c -1.606531,0 -2.900391,1.293859 -2.900391,2.90039 v 77.455076 c 0,1.60653 1.29386,2.90039 2.900391,2.90039 H 169.40234 c 1.60653,0 2.89844,-1.29386 2.89844,-2.90039 V 59.396484 c 0,-1.606531 -1.29191,-2.90039 -2.89844,-2.90039 z"
         clip-path="url(#clipPath2619)" /><rect
         style="display:inline;opacity:1;fill:#000000;fill-opacity:0;stroke:#000000;stroke-width:0;stroke-linejoin:round;stroke-dasharray:none;stroke-opacity:1"
         id="rect1572"
         width="135.07802"
         height="83.254456"
         x="37.223568"
         y="56.496811"
         ry="2.8998754"
         rx="2.8998754"
         inkscape:label="Card Border" /></g></g></svg>
